<svg width="121" height="120" viewBox="0 0 121 120" fill="none" xmlns="http://www.w3.org/2000/svg">
<g filter="url(#filter0_d_4_17)">
<path d="M59.9309 13H55.5481V0.636363L59.9671 0.636363C61.2107 0.636363 62.2813 0.883878 63.1788 1.37891C64.0763 1.86991 64.7665 2.57623 65.2494 3.49787C65.7364 4.41951 65.9799 5.52225 65.9799 6.80611C65.9799 8.09399 65.7364 9.20076 65.2494 10.1264C64.7665 11.0521 64.0722 11.7624 63.1667 12.2575C62.2652 12.7525 61.1866 13 59.9309 13ZM58.1621 10.7603H59.8222C60.595 10.7603 61.2449 10.6235 61.7722 10.3498C62.3034 10.0721 62.7019 9.64347 62.9675 9.06392C63.2371 8.48035 63.372 7.72775 63.372 6.80611C63.372 5.89252 63.2371 5.14595 62.9675 4.56641C62.7019 3.98686 62.3054 3.56025 61.7782 3.28658C61.251 3.0129 60.601 2.87607 59.8283 2.87607L58.1621 2.87607V10.7603Z" fill="black"/>
<path d="M74.424 15.1788L79.4527 3.88406L87.0635 7.27257L86.1869 9.24143L80.9642 6.91612L79.7659 9.60745L84.597 11.7584L83.7205 13.7273L78.8893 11.5763L77.6886 14.2731L82.9334 16.6083L82.0568 18.5771L74.424 15.1788Z" fill="black"/>
<path d="M89.937 24.5039L99.1249 16.231L100.874 18.1736L93.2877 25.0044L96.8344 28.9434L95.2327 30.3855L89.937 24.5039Z" fill="black"/>
<path d="M113.681 40.5553L101.923 44.3759L101.115 41.8898L112.873 38.0693L113.681 40.5553Z" fill="black"/>
<path d="M110.676 67.4078L110.952 64.7782C111.297 64.7659 111.61 64.6996 111.89 64.5793C112.173 64.4593 112.422 64.2932 112.634 64.0808C112.847 63.8684 113.019 63.6154 113.151 63.3217C113.283 63.0321 113.367 62.7111 113.404 62.3589C113.471 61.7225 113.371 61.1515 113.104 60.646C112.842 60.1409 112.424 59.7267 111.851 59.4034C111.282 59.0805 110.571 58.8743 109.719 58.7847C108.842 58.6926 108.092 58.7452 107.468 58.9427C106.844 59.1442 106.355 59.4651 106.001 59.9055C105.647 60.3458 105.438 60.8762 105.373 61.4966C105.336 61.8448 105.348 62.1718 105.409 62.4777C105.47 62.7876 105.576 63.0678 105.727 63.3185C105.883 63.5696 106.081 63.7846 106.321 63.9636C106.561 64.1467 106.842 64.2854 107.164 64.38L106.875 67.0084C106.318 66.881 105.792 66.6537 105.296 66.3264C104.804 66.0036 104.376 65.5923 104.011 65.0927C103.651 64.5975 103.383 64.0231 103.209 63.3694C103.039 62.7202 102.995 62.0014 103.078 61.2128C103.193 60.1161 103.544 59.1616 104.131 58.3492C104.718 57.5408 105.508 56.9359 106.501 56.5344C107.494 56.137 108.659 56.0085 109.996 56.149C111.336 56.2899 112.451 56.662 113.338 57.2652C114.226 57.8684 114.87 58.6281 115.272 59.5444C115.677 60.4611 115.823 61.4598 115.71 62.5405C115.635 63.253 115.465 63.9029 115.201 64.4903C114.937 65.0816 114.588 65.5933 114.154 66.0252C113.724 66.4575 113.217 66.7927 112.634 67.0309C112.05 67.273 111.397 67.3987 110.676 67.4078Z" fill="black"/>
<path d="M107.653 85.3598L96.9453 79.178L98.2523 76.9142L108.96 83.096L107.653 85.3598Z" fill="black"/>
<path d="M84.6871 99.5293C83.8947 98.4385 83.4272 97.3604 83.2848 96.2948C83.1391 95.2315 83.2745 94.2402 83.691 93.3208C84.1066 92.4069 84.7556 91.6295 85.6379 90.9884C86.5268 90.3426 87.4712 89.9649 88.4711 89.8553C89.471 89.7457 90.454 89.9244 91.4202 90.3915C92.3864 90.8586 93.2645 91.6359 94.0546 92.7234C94.8471 93.8142 95.3162 94.8912 95.4618 95.9544C95.6075 97.0176 95.4725 98.0061 95.057 98.92C94.6437 99.837 93.9927 100.618 93.1038 101.264C92.2214 101.905 91.2803 102.281 90.2804 102.39C89.2797 102.506 88.2962 102.33 87.33 101.863C86.3606 101.398 85.4796 100.62 84.6871 99.5293ZM86.8312 97.9715C87.3445 98.6781 87.8833 99.197 88.4474 99.5284C89.0082 99.8622 89.5702 100.016 90.1333 99.9899C90.6964 99.9639 91.2336 99.7651 91.7448 99.3937C92.256 99.0223 92.611 98.5729 92.8098 98.0454C93.0085 97.5179 93.0375 96.9347 92.8967 96.2958C92.7526 95.6593 92.4239 94.9877 91.9105 94.2812C91.3972 93.5746 90.8601 93.0545 90.2992 92.7207C89.7351 92.3894 89.1715 92.2367 88.6084 92.2628C88.0453 92.2888 87.5082 92.4876 86.997 92.859C86.4858 93.2304 86.1308 93.6798 85.932 94.2073C85.7332 94.7348 85.7059 95.3168 85.8499 95.9533C85.9908 96.5923 86.3179 97.265 86.8312 97.9715Z" fill="black"/>
<path d="M68.9976 107.506C69.1461 107.972 69.4274 108.299 69.8417 108.487C70.256 108.675 70.7703 108.703 71.3844 108.573C71.8017 108.484 72.1414 108.35 72.4037 108.171C72.6668 107.995 72.8534 107.789 72.9634 107.552C73.0695 107.315 73.0949 107.067 73.0397 106.807C73.0015 106.589 72.9161 106.41 72.7834 106.269C72.6467 106.13 72.4773 106.02 72.275 105.939C72.0736 105.863 71.8476 105.806 71.5969 105.769C71.347 105.735 71.084 105.717 70.8077 105.714L69.6659 105.685C69.1133 105.679 68.5956 105.625 68.1129 105.522C67.6301 105.419 67.1968 105.258 66.8129 105.039C66.429 104.82 66.1071 104.535 65.8471 104.183C65.5832 103.831 65.3957 103.404 65.2846 102.901C65.1313 102.16 65.1838 101.478 65.4423 100.856C65.6978 100.238 66.144 99.7045 66.7812 99.2564C67.4152 98.813 68.2243 98.4868 69.2085 98.2776C70.1848 98.0701 71.0669 98.0389 71.8548 98.1841C72.6388 98.3302 73.2959 98.6534 73.8261 99.1538C74.3531 99.6589 74.7189 100.344 74.9236 101.21L72.4494 101.736C72.3356 101.337 72.1475 101.023 71.8851 100.795C71.6195 100.571 71.2989 100.427 70.9232 100.363C70.5444 100.304 70.1345 100.321 69.6936 100.415C69.2606 100.507 68.898 100.65 68.6059 100.844C68.3099 101.038 68.0971 101.266 67.9677 101.528C67.8382 101.791 67.8045 102.067 67.8664 102.359C67.9241 102.63 68.0534 102.841 68.2541 102.992C68.4509 103.144 68.7166 103.252 69.0513 103.316C69.382 103.382 69.7791 103.421 70.2426 103.433L71.6298 103.484C72.7021 103.515 73.5895 103.732 74.2922 104.134C74.9948 104.536 75.4391 105.184 75.6251 106.079C75.7847 106.81 75.7258 107.491 75.4485 108.122C75.1672 108.754 74.7127 109.297 74.0851 109.751C73.4575 110.206 72.7028 110.526 71.821 110.714C70.9235 110.905 70.1074 110.918 69.3729 110.753C68.6345 110.589 68.0201 110.273 67.5298 109.805C67.0395 109.338 66.7119 108.745 66.547 108.027L68.9976 107.506Z" fill="black"/>
<path d="M55.1109 99.2256L52.5404 111.319L44.3915 109.587L44.8396 107.479L50.4316 108.667L51.0441 105.786L45.8713 104.686L46.3194 102.578L51.4922 103.678L52.106 100.79L46.4903 99.5965L46.9384 97.4885L55.1109 99.2256Z" fill="black"/>
<path d="M24.8981 81.1563L14.1909 87.3381L10.0978 80.2488L11.9643 79.1712L14.7503 83.9968L17.3017 82.5237L14.7873 78.1687L16.6537 77.0911L19.1681 81.4461L23.5911 78.8925L24.8981 81.1563Z" fill="black"/>
<path d="M10.6471 55.5922C11.9879 55.4513 13.1554 55.5856 14.1494 55.995C15.143 56.4005 15.9339 57.0134 16.5219 57.8338C17.1055 58.6506 17.4543 59.6014 17.5683 60.6861C17.6831 61.7788 17.5381 62.7855 17.133 63.7062C16.728 64.627 16.0817 65.3889 15.1941 65.9921C14.3065 66.5953 13.1943 66.9671 11.8574 67.1076C10.5165 67.2486 9.3493 67.1163 8.35569 66.7108C7.36208 66.3054 6.57347 65.6942 5.98986 64.8774C5.40225 64.061 5.05102 63.1065 4.93618 62.0138C4.82217 60.9291 4.96768 59.9264 5.37271 59.0057C5.77332 58.0814 6.41742 57.3176 7.30502 56.7144C8.1922 56.1072 9.30622 55.7332 10.6471 55.5922ZM10.9241 58.2279C10.0555 58.3192 9.33675 58.5263 8.76771 58.8491C8.19825 59.168 7.78403 59.5778 7.52505 60.0785C7.26607 60.5792 7.16961 61.1437 7.23566 61.7721C7.3017 62.4005 7.51344 62.9327 7.87086 63.3686C8.22827 63.8045 8.71885 64.1212 9.34258 64.3187C9.96588 64.5121 10.7118 64.5632 11.5804 64.472C12.4489 64.3807 13.1679 64.1756 13.7374 63.8567C14.3064 63.5339 14.7204 63.1221 14.9794 62.6214C15.2384 62.1207 15.3349 61.5562 15.2688 60.9278C15.2028 60.2994 14.991 59.7672 14.6336 59.3313C14.2762 58.8954 13.7858 58.5807 13.1625 58.3872C12.5388 58.1897 11.7927 58.1366 10.9241 58.2279Z" fill="black"/>
<path d="M15.1862 35.4275C16.4685 35.8441 17.4804 36.4416 18.2219 37.22C18.9647 37.9945 19.4378 38.8761 19.6414 39.8648C19.8423 40.8483 19.7742 41.8588 19.4372 42.8961C19.0977 43.941 18.5556 44.8017 17.8111 45.4781C17.0666 46.1544 16.1663 46.5876 15.1101 46.7777C14.0539 46.9677 12.8866 46.855 11.6081 46.4396C10.3259 46.023 9.31335 45.4274 8.57055 44.6528C7.82776 43.8783 7.3559 42.9992 7.15498 42.0157C6.95023 41.0308 7.01762 40.016 7.35714 38.971C7.69418 37.9337 8.23495 37.0769 8.97946 36.4005C9.72138 35.7191 10.6204 35.2833 11.6766 35.0933C12.7341 34.8995 13.9039 35.0108 15.1862 35.4275ZM14.3672 37.948C13.5366 37.6781 12.7958 37.5749 12.1446 37.6384C11.4947 37.6981 10.9496 37.9039 10.5094 38.256C10.0691 38.6081 9.75138 39.0846 9.55612 39.6855C9.36087 40.2865 9.33785 40.8587 9.48707 41.4023C9.63628 41.9459 9.95563 42.4348 10.4451 42.8689C10.9358 43.2991 11.5965 43.6492 12.4271 43.9191C13.2577 44.189 13.9979 44.2941 14.6479 44.2344C15.299 44.1709 15.8447 43.9632 16.285 43.6111C16.7252 43.259 17.0429 42.7825 17.2382 42.1816C17.4335 41.5806 17.4565 41.0084 17.3073 40.4648C17.158 39.9212 16.8381 39.4342 16.3473 39.004C15.8579 38.5698 15.1978 38.2179 14.3672 37.948Z" fill="black"/>
<path d="M27.9754 27.6012L25.0427 30.8583L15.8547 22.5854L18.8116 19.3014C19.6438 18.3773 20.5441 17.7473 21.5125 17.4116C22.4779 17.0732 23.4646 17.0328 24.4727 17.2906C25.4835 17.5454 26.4659 18.1024 27.42 18.9614C28.3771 19.8232 29.0366 20.7447 29.3987 21.726C29.7634 22.7043 29.8268 23.6955 29.5887 24.6997C29.3534 25.7009 28.8156 26.6681 27.9754 27.6012ZM25.1274 27.4171L26.2382 26.1833C26.7553 25.6091 27.0885 25.0345 27.2379 24.4596C27.387 23.879 27.3351 23.2961 27.0822 22.7109C26.8289 22.12 26.3598 21.5162 25.6749 20.8995C24.996 20.2882 24.351 19.8889 23.7399 19.7014C23.1314 19.5111 22.5491 19.5202 21.993 19.7289C21.4368 19.9376 20.9002 20.329 20.3832 20.9033L19.2683 22.1415L25.1274 27.4171Z" fill="black"/>
<path d="M41.2228 7.78775C40.9806 7.36251 40.6374 7.10121 40.1931 7.00384C39.7489 6.90646 39.24 6.98546 38.6664 7.24082C38.2767 7.41434 37.9722 7.616 37.7529 7.8458C37.532 8.07192 37.3924 8.3125 37.3341 8.56752C37.2795 8.82092 37.3062 9.06894 37.4143 9.3116C37.497 9.51709 37.6178 9.67475 37.7768 9.78457C37.9396 9.89275 38.1282 9.96516 38.3428 10.0018C38.5557 10.0348 38.7886 10.0434 39.0415 10.0277C39.2928 10.0083 39.5539 9.97138 39.8248 9.91685L40.9476 9.70771C41.4894 9.59866 42.0071 9.54438 42.5008 9.54487C42.9944 9.54537 43.4517 9.6127 43.8727 9.74686C44.2937 9.88103 44.6679 10.0933 44.9954 10.3836C45.3266 10.6723 45.5988 11.0511 45.812 11.5201C46.1161 12.213 46.2064 12.8908 46.0831 13.5537C45.9617 14.2113 45.636 14.8255 45.106 15.3963C44.578 15.9618 43.8544 16.4492 42.9352 16.8584C42.0234 17.2644 41.167 17.4782 40.3661 17.5C39.5689 17.5201 38.859 17.3406 38.2364 16.9614C37.6158 16.5769 37.1154 15.9824 36.7353 15.1781L39.0461 14.1492C39.2404 14.5165 39.4897 14.7844 39.7938 14.9529C40.1 15.1162 40.4435 15.1901 40.8243 15.1748C41.2072 15.1541 41.6045 15.0521 42.0163 14.8687C42.4208 14.6887 42.7457 14.4735 42.9911 14.2233C43.2402 13.9714 43.4009 13.7038 43.473 13.4206C43.5451 13.1373 43.5206 12.8597 43.3995 12.5876C43.2866 12.3339 43.1162 12.1542 42.8886 12.0486C42.6646 11.9412 42.3822 11.8907 42.0414 11.8971C41.7042 11.9018 41.3077 11.9462 40.8517 12.0303L39.4843 12.269C38.429 12.4613 37.5158 12.4339 36.745 12.1868C35.9741 11.9397 35.4047 11.398 35.0368 10.5618C34.7287 9.87953 34.6447 9.20104 34.7848 8.52629C34.9286 7.8499 35.2602 7.22426 35.7796 6.64937C36.299 6.07449 36.9705 5.6037 37.7941 5.23702C38.6324 4.8638 39.4279 4.68143 40.1806 4.68993C40.937 4.69679 41.6036 4.87799 42.1804 5.23354C42.7572 5.58909 43.201 6.10082 43.5115 6.76874L41.2228 7.78775Z" fill="black"/>
</g>
<defs>
<filter id="filter0_d_4_17" x="0.330994" y="0.636353" width="119.981" height="119.069" filterUnits="userSpaceOnUse" color-interpolation-filters="sRGB">
<feFlood flood-opacity="0" result="BackgroundImageFix"/>
<feColorMatrix in="SourceAlpha" type="matrix" values="0 0 0 0 0 0 0 0 0 0 0 0 0 0 0 0 0 0 127 0" result="hardAlpha"/>
<feOffset dy="4"/>
<feGaussianBlur stdDeviation="2"/>
<feComposite in2="hardAlpha" operator="out"/>
<feColorMatrix type="matrix" values="0 0 0 0 0 0 0 0 0 0 0 0 0 0 0 0 0 0 0.25 0"/>
<feBlend mode="normal" in2="BackgroundImageFix" result="effect1_dropShadow_4_17"/>
<feBlend mode="normal" in="SourceGraphic" in2="effect1_dropShadow_4_17" result="shape"/>
</filter>
</defs>
</svg>
