<svg width="137" height="20" viewBox="0 0 137 20" fill="none" xmlns="http://www.w3.org/2000/svg">
<path d="M0.487122 19V4.27272H4.44702V6.84232H4.60043C4.86893 5.92832 5.31952 5.23792 5.95232 4.77132C6.58522 4.29832 7.31392 4.06182 8.13842 4.06182C8.34302 4.06182 8.56353 4.07462 8.80003 4.10012C9.03653 4.12572 9.24433 4.16092 9.42323 4.20562V7.82992C9.23153 7.77242 8.96623 7.72122 8.62743 7.67652C8.28863 7.63172 7.97863 7.60942 7.69743 7.60942C7.09653 7.60942 6.55962 7.74042 6.08662 8.00252C5.62002 8.25822 5.24923 8.61612 4.97443 9.07632C4.70593 9.53662 4.57172 10.0671 4.57172 10.668V19H0.487122ZM17.5611 19.2876C16.0462 19.2876 14.7422 18.9808 13.6492 18.3672C12.5625 17.7472 11.7252 16.8714 11.1371 15.7401C10.549 14.6023 10.255 13.2567 10.255 11.7035C10.255 10.1886 10.549 8.85902 11.1371 7.71482C11.7252 6.57072 12.5529 5.67902 13.6204 5.03982C14.6943 4.40062 15.9535 4.08102 17.3981 4.08102C18.3697 4.08102 19.2742 4.23762 20.1115 4.55082C20.9553 4.85762 21.6904 5.32102 22.3168 5.94112C22.9496 6.56112 23.4418 7.34092 23.7933 8.28052C24.1449 9.21382 24.3207 10.3068 24.3207 11.5597V12.6815H11.885V10.1502H20.4759C20.4759 9.56212 20.348 9.04122 20.0924 8.58742C19.8367 8.13352 19.4819 7.77882 19.0281 7.52312C18.5806 7.26102 18.0597 7.13002 17.4652 7.13002C16.8452 7.13002 16.2955 7.27382 15.8161 7.56142C15.3431 7.84272 14.9723 8.22302 14.7039 8.70242C14.4354 9.17542 14.298 9.70282 14.2916 10.2844V12.6911C14.2916 13.4197 14.4258 14.0494 14.6943 14.5799C14.9691 15.1104 15.3558 15.5195 15.8544 15.8072C16.353 16.0948 16.9443 16.2386 17.6282 16.2386C18.0821 16.2386 18.4975 16.1747 18.8747 16.0469C19.2518 15.919 19.5746 15.7273 19.8431 15.4716C20.1115 15.2159 20.3161 14.9027 20.4567 14.532L24.2344 14.7812C24.0426 15.6889 23.6495 16.4815 23.0551 17.1591C22.467 17.8303 21.7063 18.3544 20.7731 18.7315C19.8463 19.1023 18.7756 19.2876 17.5611 19.2876ZM39.2397 8.47232L35.5004 8.70242C35.4365 8.38282 35.299 8.09522 35.0881 7.83952C34.8772 7.57742 34.5991 7.36972 34.2539 7.21632C33.9152 7.05652 33.5093 6.97662 33.0362 6.97662C32.4034 6.97662 31.8697 7.11082 31.435 7.37932C31.0004 7.64132 30.783 7.99292 30.783 8.43392C30.783 8.78552 30.9237 9.08272 31.2049 9.32562C31.4862 9.56852 31.9688 9.76352 32.6527 9.91052L35.3182 10.4474C36.75 10.7415 37.8175 11.2145 38.5206 11.8665C39.2237 12.5185 39.5753 13.375 39.5753 14.4361C39.5753 15.4013 39.2909 16.2482 38.722 16.9769C38.1595 17.7056 37.386 18.2745 36.4017 18.6836C35.4237 19.0863 34.2955 19.2876 33.0171 19.2876C31.0675 19.2876 29.5142 18.8817 28.3573 18.07C27.2067 17.2518 26.5323 16.1396 26.3342 14.7333L30.3516 14.5224C30.473 15.1168 30.7671 15.5707 31.2337 15.8839C31.7003 16.1907 32.298 16.3441 33.0267 16.3441C33.7426 16.3441 34.3178 16.2067 34.7525 15.9318C35.1936 15.6506 35.4173 15.2894 35.4237 14.8484C35.4173 14.4776 35.2607 14.174 34.9539 13.9375C34.647 13.6946 34.174 13.5092 33.5348 13.3814L30.9844 12.8732C29.5462 12.5856 28.4755 12.087 27.7724 11.3775C27.0757 10.668 26.7273 9.76352 26.7273 8.66412C26.7273 7.71802 26.983 6.90312 27.4943 6.21912C28.0121 5.53522 28.7376 5.00782 29.6708 4.63712C30.6105 4.26632 31.7099 4.08102 32.9691 4.08102C34.8292 4.08102 36.293 4.47412 37.3605 5.26032C38.4343 6.04652 39.0607 7.11722 39.2397 8.47232ZM49.981 4.27272V7.34092H41.112V4.27272H49.981ZM43.125 0.744324H47.21V14.4744C47.21 14.8516 47.267 15.1456 47.382 15.3565C47.497 15.5611 47.657 15.7049 47.862 15.788C48.073 15.8711 48.316 15.9126 48.59 15.9126C48.782 15.9126 48.974 15.8967 49.166 15.8647C49.358 15.8263 49.505 15.7976 49.607 15.7784L50.249 18.8178C50.045 18.8817 49.757 18.9553 49.386 19.0384C49.016 19.1278 48.565 19.1822 48.034 19.2013C47.05 19.2397 46.187 19.1087 45.446 18.8082C44.711 18.5078 44.138 18.0412 43.729 17.4084C43.32 16.7756 43.119 15.9766 43.125 15.0114V0.744324ZM56.841 19.2781C55.901 19.2781 55.064 19.1151 54.329 18.7891C53.594 18.4567 53.012 17.9677 52.584 17.3221C52.162 16.6701 51.951 15.8583 51.951 14.8867C51.951 14.0685 52.101 13.3814 52.402 12.8253C52.702 12.2692 53.111 11.8217 53.629 11.483C54.147 11.1442 54.735 10.8885 55.393 10.7159C56.058 10.5433 56.755 10.4219 57.483 10.3516C58.34 10.2621 59.03 10.179 59.554 10.1023C60.079 10.0192 60.459 9.89772 60.695 9.73792C60.932 9.57812 61.05 9.34162 61.05 9.02842V8.97092C61.05 8.36362 60.858 7.89382 60.475 7.56142C60.098 7.22902 59.561 7.06292 58.864 7.06292C58.129 7.06292 57.544 7.22592 57.109 7.55182C56.675 7.87142 56.387 8.27412 56.247 8.75992L52.469 8.45312C52.661 7.55822 53.038 6.78482 53.6 6.13282C54.163 5.47442 54.888 4.96952 55.777 4.61792C56.672 4.25992 57.707 4.08102 58.883 4.08102C59.701 4.08102 60.484 4.17682 61.232 4.36862C61.987 4.56042 62.655 4.85762 63.236 5.26032C63.824 5.66302 64.288 6.18082 64.627 6.81362C64.965 7.44002 65.135 8.19112 65.135 9.06682V19H61.261V16.9577H61.146C60.91 17.418 60.593 17.8239 60.197 18.1754C59.801 18.5206 59.324 18.7923 58.768 18.9904C58.212 19.1822 57.57 19.2781 56.841 19.2781ZM58.011 16.4592C58.612 16.4592 59.142 16.3409 59.602 16.1044C60.063 15.8615 60.424 15.5355 60.686 15.1264C60.948 14.7173 61.079 14.2539 61.079 13.7362V12.1733C60.951 12.2564 60.775 12.3331 60.552 12.4034C60.334 12.4673 60.088 12.5281 59.813 12.5856C59.538 12.6367 59.264 12.6847 58.989 12.7294C58.714 12.7678 58.465 12.8029 58.241 12.8349C57.761 12.9052 57.343 13.017 56.985 13.1705C56.627 13.3239 56.349 13.5316 56.151 13.7937C55.953 14.0494 55.853 14.369 55.853 14.7525C55.853 15.3086 56.055 15.7337 56.457 16.0277C56.867 16.3153 57.384 16.4592 58.011 16.4592ZM77.748 12.7294V4.27272H81.832V19H77.911V16.3249H77.757C77.425 17.1879 76.872 17.8814 76.099 18.4055C75.332 18.9297 74.395 19.1918 73.289 19.1918C72.305 19.1918 71.439 18.968 70.691 18.5206C69.943 18.0732 69.358 17.4371 68.936 16.6126C68.521 15.788 68.31 14.8004 68.304 13.6499V4.27272H72.388V12.9212C72.394 13.7905 72.628 14.4776 73.088 14.9826C73.548 15.4876 74.165 15.7401 74.938 15.7401C75.431 15.7401 75.891 15.6282 76.319 15.4045C76.747 15.1744 77.093 14.8356 77.355 14.3881C77.623 13.9407 77.754 13.3878 77.748 12.7294ZM85.099 19V4.27272H89.059V6.84232H89.213C89.481 5.92832 89.932 5.23792 90.565 4.77132C91.197 4.29832 91.926 4.06182 92.751 4.06182C92.955 4.06182 93.176 4.07462 93.412 4.10012C93.649 4.12572 93.857 4.16092 94.036 4.20562V7.82992C93.844 7.77242 93.579 7.72122 93.24 7.67652C92.901 7.63172 92.591 7.60942 92.31 7.60942C91.709 7.60942 91.172 7.74042 90.699 8.00252C90.232 8.25822 89.862 8.61612 89.587 9.07632C89.318 9.53662 89.184 10.0671 89.184 10.668V19H85.099ZM99.925 19.2781C98.985 19.2781 98.148 19.1151 97.413 18.7891C96.678 18.4567 96.096 17.9677 95.668 17.3221C95.246 16.6701 95.035 15.8583 95.035 14.8867C95.035 14.0685 95.185 13.3814 95.486 12.8253C95.786 12.2692 96.195 11.8217 96.713 11.483C97.231 11.1442 97.819 10.8885 98.477 10.7159C99.142 10.5433 99.839 10.4219 100.567 10.3516C101.424 10.2621 102.114 10.179 102.638 10.1023C103.163 10.0192 103.543 9.89772 103.779 9.73792C104.016 9.57812 104.134 9.34162 104.134 9.02842V8.97092C104.134 8.36362 103.942 7.89382 103.559 7.56142C103.182 7.22902 102.645 7.06292 101.948 7.06292C101.213 7.06292 100.628 7.22592 100.193 7.55182C99.759 7.87142 99.471 8.27412 99.331 8.75992L95.553 8.45312C95.745 7.55822 96.122 6.78482 96.684 6.13282C97.247 5.47442 97.972 4.96952 98.861 4.61792C99.756 4.25992 100.791 4.08102 101.967 4.08102C102.785 4.08102 103.568 4.17682 104.316 4.36862C105.071 4.56042 105.739 4.85762 106.32 5.26032C106.908 5.66302 107.372 6.18082 107.711 6.81362C108.049 7.44002 108.219 8.19112 108.219 9.06682V19H104.345V16.9577H104.23C103.994 17.418 103.677 17.8239 103.281 18.1754C102.885 18.5206 102.408 18.7923 101.852 18.9904C101.296 19.1822 100.654 19.2781 99.925 19.2781ZM101.095 16.4592C101.696 16.4592 102.226 16.3409 102.686 16.1044C103.147 15.8615 103.508 15.5355 103.77 15.1264C104.032 14.7173 104.163 14.2539 104.163 13.7362V12.1733C104.035 12.2564 103.859 12.3331 103.636 12.4034C103.418 12.4673 103.172 12.5281 102.897 12.5856C102.622 12.6367 102.348 12.6847 102.073 12.7294C101.798 12.7678 101.549 12.8029 101.325 12.8349C100.845 12.9052 100.427 13.017 100.069 13.1705C99.711 13.3239 99.433 13.5316 99.235 13.7937C99.037 14.0494 98.937 14.369 98.937 14.7525C98.937 15.3086 99.139 15.7337 99.541 16.0277C99.951 16.3153 100.468 16.4592 101.095 16.4592ZM115.472 10.4858V19H111.388V4.27272H115.28V6.87112H115.453C115.779 6.01462 116.325 5.33702 117.092 4.83842C117.859 4.33352 118.79 4.08102 119.883 4.08102C120.905 4.08102 121.797 4.30472 122.558 4.75212C123.318 5.19962 123.91 5.83882 124.331 6.66972C124.753 7.49432 124.964 8.47872 124.964 9.62292V19H120.88V10.3516C120.886 9.45032 120.656 8.74722 120.189 8.24222C119.723 7.73082 119.08 7.47512 118.262 7.47512C117.712 7.47512 117.227 7.59342 116.805 7.82992C116.389 8.06642 116.063 8.41162 115.827 8.86542C115.597 9.31292 115.478 9.85302 115.472 10.4858ZM136.017 4.27272V7.34092H127.148V4.27272H136.017ZM129.161 0.744324H133.246V14.4744C133.246 14.8516 133.303 15.1456 133.419 15.3565C133.534 15.5611 133.693 15.7049 133.898 15.788C134.109 15.8711 134.352 15.9126 134.627 15.9126C134.818 15.9126 135.01 15.8967 135.202 15.8647C135.394 15.8263 135.541 15.7976 135.643 15.7784L136.285 18.8178C136.081 18.8817 135.793 18.9553 135.422 19.0384C135.052 19.1278 134.601 19.1822 134.071 19.2013C133.086 19.2397 132.223 19.1087 131.482 18.8082C130.747 18.5078 130.175 18.0412 129.765 17.4084C129.356 16.7756 129.155 15.9766 129.161 15.0114V0.744324Z" fill="#101A24"/>
</svg>
